<svg version="1.2" baseProfile="tiny-ps" xmlns="http://www.w3.org/2000/svg" viewBox="0 0 460 90" width="460" height="90">
	<title>default-monochrome-svg</title>
	<style>
		tspan { white-space:pre }
		.shp0 { fill: #ffffff } 
		.shp1 { fill: #e94560 } 
	</style>
	<g id="160fec73-bb89-4bfb-b129-5ab248dffb3c">
		<path id="Layer" fill-rule="evenodd" class="shp0" d="M157.22 62.36C155.74 62.36 155 61.57 155 60L155 19.35C155 17.78 155.74 16.99 157.22 16.99L166.39 16.99C167.62 16.99 168.5 17.82 169.03 19.49L177.59 47.27C177.99 48.47 178.27 49.46 178.43 50.23C178.55 51 178.67 51.91 178.8 52.96L178.98 52.96C179.07 51.91 179.2 51 179.35 50.23C179.51 49.46 179.77 48.47 180.14 47.27L188.7 19.49C189.23 17.82 190.11 16.99 191.34 16.99L200.51 16.99C201.99 16.99 202.73 17.78 202.73 19.35L202.73 60C202.73 61.57 201.99 62.36 200.51 62.36L195.69 62.36C194.24 62.36 193.52 61.57 193.52 60L193.52 33.84C193.52 32.58 193.56 31.31 193.66 30.05L193.43 30.05L184.31 59.81C183.78 61.51 182.87 62.36 181.57 62.36L176.2 62.36C174.91 62.36 174 61.51 173.47 59.81L164.31 30.05L164.12 30.05C164.21 31.31 164.26 32.58 164.26 33.84L164.26 60C164.26 61.57 163.52 62.36 162.04 62.36L157.22 62.36ZM210.32 45.74C210.32 40.37 211.71 36.16 214.49 33.1C217.27 30.05 221.4 28.52 226.9 28.52C232.39 28.52 236.51 30.05 239.26 33.1C242.04 36.16 243.43 40.37 243.43 45.74C243.43 51.11 242.04 55.34 239.26 58.43C236.51 61.48 232.39 63.01 226.9 63.01C221.4 63.01 217.27 61.48 214.49 58.43C211.71 55.34 210.32 51.11 210.32 45.74ZM219.72 45.74C219.72 49.75 220.34 52.59 221.57 54.26C222.81 55.96 224.58 56.81 226.9 56.81C229.21 56.81 230.99 55.96 232.22 54.26C233.46 52.59 234.07 49.75 234.07 45.74C234.07 41.73 233.46 38.89 232.22 37.22C230.99 35.56 229.21 34.72 226.9 34.72C224.58 34.72 222.81 35.56 221.57 37.22C220.34 38.89 219.72 41.73 219.72 45.74ZM247.31 31.62C246.79 29.95 247.13 29.12 248.33 29.12L254.03 29.12C255.02 29.12 255.65 29.66 255.93 30.74L260.83 49.31C261.11 50.32 261.33 51.34 261.48 52.36C261.67 53.38 261.79 54.2 261.85 54.81L262.04 54.81C262.07 54.2 262.18 53.38 262.36 52.36C262.55 51.34 262.76 50.32 263.01 49.31L267.92 30.74C268.19 29.66 268.83 29.12 269.81 29.12L275.51 29.12C276.71 29.12 277.05 29.95 276.53 31.62L267.36 60.23C266.93 61.65 266.16 62.36 265.05 62.36L258.8 62.36C257.69 62.36 256.91 61.65 256.48 60.23L247.31 31.62ZM284.07 62.36C282.81 62.36 282.18 61.73 282.18 60.46L282.18 31.02C282.18 29.75 282.81 29.12 284.07 29.12L289.12 29.12C290.39 29.12 291.02 29.75 291.02 31.02L291.02 60.46C291.02 61.73 290.39 62.36 289.12 62.36L284.07 62.36ZM284.07 24.26C282.81 24.26 282.18 23.63 282.18 22.36L282.18 18.29C282.18 17.02 282.81 16.39 284.07 16.39L289.12 16.39C290.39 16.39 291.02 17.02 291.02 18.29L291.02 22.36C291.02 23.63 290.39 24.26 289.12 24.26L284.07 24.26ZM297.87 45.74C297.87 40.4 299.21 36.19 301.9 33.1C304.55 30.05 308.32 28.52 313.19 28.52C318.84 28.52 323.04 29.97 325.79 32.87C328.53 35.77 329.91 40.45 329.91 46.9C329.91 48.16 329.32 48.8 328.15 48.8L307.22 48.8C307.56 52.31 308.44 54.52 309.86 55.42C311.25 56.34 312.85 56.81 314.68 56.81C316.44 56.81 317.78 56.57 318.7 56.11C319.63 55.65 320.42 55.02 321.06 54.21C321.77 53.29 322.65 53.13 323.7 53.75L326.85 55.69C328.12 56.44 328.3 57.35 327.41 58.43C326.11 59.94 324.6 61.08 322.87 61.85C321.14 62.62 318.41 63.01 314.68 63.01C308.63 63.01 304.32 61.47 301.76 58.38C299.17 55.29 297.87 51.08 297.87 45.74ZM307.27 42.5L321.06 42.5C321.06 40.22 320.49 38.35 319.35 36.9C318.21 35.45 316.39 34.72 313.89 34.72C311.91 34.72 310.34 35.42 309.17 36.81C308.02 38.19 307.39 40.09 307.27 42.5ZM338.7 75C337.44 75 336.81 74.37 336.81 73.1L336.81 31.02C336.81 29.75 337.44 29.12 338.7 29.12L343.7 29.12C344.75 29.12 345.32 29.75 345.42 31.02L345.56 32.87L345.65 32.87C346.76 31.05 347.99 29.86 349.35 29.31C350.68 28.78 352.3 28.52 354.21 28.52C359.18 28.52 362.67 30.23 364.68 33.66C366.68 37.08 367.69 41.11 367.69 45.74C367.69 50.4 366.68 54.44 364.68 57.87C362.67 61.3 359.18 63.01 354.21 63.01C352.3 63.01 350.68 62.73 349.35 62.18C347.99 61.62 346.76 60.43 345.65 58.61L345.56 58.61C345.62 59.48 345.65 60.32 345.65 61.16L345.65 73.1C345.65 74.37 345.02 75 343.75 75L338.7 75ZM345.65 47.18C345.65 50.02 346.22 52.33 347.36 54.12C348.47 55.91 349.83 56.81 351.44 56.81C354.27 56.81 356.13 55.8 356.99 53.8C357.89 51.79 358.33 49.1 358.33 45.74C358.33 42.38 357.89 39.69 356.99 37.69C356.13 35.71 354.27 34.72 351.44 34.72C349.83 34.72 348.47 35.6 347.36 37.36C346.22 39.15 345.65 41.47 345.65 44.31L345.65 47.18ZM372.78 45.74C372.78 40.37 374.15 36.16 376.9 33.1C379.68 30.05 383.81 28.52 389.31 28.52C394.8 28.52 398.94 30.05 401.71 33.1C404.49 36.16 405.88 40.37 405.88 45.74C405.88 51.11 404.49 55.34 401.71 58.43C398.94 61.48 394.8 63.01 389.31 63.01C383.81 63.01 379.68 61.48 376.9 58.43C374.15 55.34 372.78 51.11 372.78 45.74ZM382.13 45.74C382.13 49.75 382.75 52.59 383.98 54.26C385.22 55.96 386.99 56.81 389.31 56.81C391.62 56.81 393.4 55.96 394.63 54.26C395.86 52.59 396.48 49.75 396.48 45.74C396.48 41.73 395.86 38.89 394.63 37.22C393.4 35.56 391.62 34.72 389.31 34.72C386.99 34.72 385.22 35.56 383.98 37.22C382.75 38.89 382.13 41.73 382.13 45.74ZM410.93 45.74C410.93 40.37 412.31 36.16 415.09 33.1C417.87 30.05 421.99 28.52 427.45 28.52C432.95 28.52 437.08 30.05 439.86 33.1C442.64 36.16 444.03 40.37 444.03 45.74C444.03 51.11 442.64 55.34 439.86 58.43C437.08 61.48 432.95 63.01 427.45 63.01C421.99 63.01 417.87 61.48 415.09 58.43C412.31 55.34 410.93 51.11 410.93 45.74ZM420.28 45.74C420.28 49.75 420.9 52.59 422.13 54.26C423.36 55.96 425.14 56.81 427.45 56.81C429.8 56.81 431.59 55.96 432.82 54.26C434.06 52.59 434.68 49.75 434.68 45.74C434.68 41.73 434.06 38.89 432.82 37.22C431.59 35.56 429.8 34.72 427.45 34.72C425.14 34.72 423.36 35.56 422.13 37.22C420.9 38.89 420.28 41.73 420.28 45.74ZM452.78 62.36C451.51 62.36 450.88 61.73 450.88 60.46L450.88 23.1C450.88 22.15 451.1 21.28 451.53 20.51L453.98 16.2C454.44 15.4 454.98 15 455.6 15L457.82 15C459.09 15 459.72 15.63 459.72 16.9L459.72 60.46C459.72 61.73 459.09 62.36 457.82 62.36L452.78 62.36Z" />
	</g>
	<g id="df4b21d3-ce87-48fd-b9f2-023101fca974">
		<path id="Layer" class="shp1" d="M85.7 89.7C60.86 89.7 40.7 69.54 40.7 44.7C40.7 19.86 60.86 -0.3 85.7 -0.3C110.54 -0.3 130.7 19.86 130.7 44.7C130.7 55.16 127.1 65.29 120.46 73.36C118.5 75.64 115.12 75.97 112.83 74.12C110.54 72.16 110.22 68.78 112.07 66.49C117.08 60.39 119.8 52.76 119.8 44.81C119.8 26.07 104.55 10.7 85.7 10.7C66.96 10.7 51.6 25.96 51.6 44.81C51.6 63.66 66.85 78.91 85.7 78.91C88.75 78.91 91.15 81.31 91.15 84.36C91.15 87.41 88.75 89.7 85.7 89.7L85.7 89.7Z" />
		<path id="Layer" class="shp1" d="M99.86 21.16C97.47 21.16 95.07 22.04 93.33 23.89C89.73 27.48 89.73 33.37 93.33 37.07C95.18 38.93 97.47 39.8 99.86 39.8C102.26 39.8 104.66 38.93 106.4 37.07C110 33.48 110 27.59 106.4 23.89C104.66 22.15 102.26 21.16 99.86 21.16ZM71.54 49.6C69.14 49.6 66.74 50.47 65 52.33C61.4 55.92 61.4 61.81 65 65.51C66.85 67.36 69.14 68.24 71.54 68.24C73.93 68.24 76.33 67.36 78.07 65.51C81.67 61.92 81.67 56.03 78.07 52.33C76.22 50.47 73.93 49.6 71.54 49.6L71.54 49.6ZM99.86 49.6C97.47 49.6 95.07 50.47 93.33 52.33C89.73 55.92 89.73 61.81 93.33 65.51C95.18 67.36 97.47 68.24 99.86 68.24C102.26 68.24 104.66 67.36 106.4 65.51C110 61.92 110 56.03 106.4 52.33C104.66 50.47 102.26 49.6 99.86 49.6L99.86 49.6ZM71.54 21.16C69.14 21.16 66.74 22.04 65 23.89C61.4 27.48 61.4 33.37 65 37.07C66.85 38.93 69.25 39.8 71.54 39.8C73.93 39.8 76.33 38.93 78.07 37.07C81.67 33.48 81.67 27.59 78.07 23.89C76.22 22.15 73.93 21.16 71.54 21.16Z" />
		<g id="Layer">
			<path id="Layer" class="shp1" d="M85.7 40.56C84.61 40.56 83.63 41 82.76 41.76C81.12 43.39 81.12 46.01 82.76 47.64C83.52 48.4 84.61 48.84 85.7 48.84C86.79 48.84 87.77 48.4 88.64 47.64C90.28 46.01 90.28 43.39 88.64 41.76C87.77 41 86.79 40.56 85.7 40.56Z" />
		</g>
		<path id="Layer" class="shp1" d="M125.25 89.7L85.26 89.7C82.21 89.7 79.82 87.3 79.82 84.25C79.82 81.2 82.21 78.8 85.26 78.8L125.25 78.8C128.3 78.8 130.7 81.2 130.7 84.25C130.7 87.3 128.19 89.7 125.25 89.7L125.25 89.7Z" />
		<path id="Layer 1" class="shp1" d="M7.94 27.5L31.41 40.94C35.25 43.14 35.26 46.71 31.44 48.94L8.06 62.54C4.24 64.77 1.14 62.99 1.12 58.56L1.03 31.52C1.01 27.1 4.1 25.3 7.94 27.5Z" />
	</g>
</svg>